<svg width="24" height="24" viewBox="0 0 24 24" fill="none" xmlns="http://www.w3.org/2000/svg">
<path d="M9.03988 7.505C7.98817 8.09153 7.1378 8.98162 6.59988 10.059C6.18265 10.894 5.96636 11.8149 5.96827 12.7483C5.97018 13.6817 6.19024 14.6018 6.61088 15.435L9.87088 21.891C10.0601 22.2963 10.3607 22.6394 10.7378 22.8801C11.1148 23.1207 11.5526 23.2491 11.9999 23.25C12.448 23.25 12.8869 23.1221 13.2649 22.8814C13.6429 22.6407 13.9443 22.2971 14.1339 21.891L17.3939 15.435C17.8145 14.6018 18.0346 13.6817 18.0365 12.7483C18.0384 11.8149 17.8221 10.894 17.4049 10.059C16.8781 9.00603 16.0527 8.13162 15.0319 7.545L9.03988 7.505Z" stroke="white" stroke-width="1.5" stroke-linecap="round" stroke-linejoin="round"/>
<path d="M12 19.5V14.25" stroke="white" stroke-width="1.5" stroke-linecap="round" stroke-linejoin="round"/>
<path d="M10.5 12.75C10.5 13.1478 10.658 13.5294 10.9393 13.8107C11.2206 14.092 11.6022 14.25 12 14.25C12.3978 14.25 12.7794 14.092 13.0607 13.8107C13.342 13.5294 13.5 13.1478 13.5 12.75C13.5 12.3522 13.342 11.9706 13.0607 11.6893C12.7794 11.408 12.3978 11.25 12 11.25C11.6022 11.25 11.2206 11.408 10.9393 11.6893C10.658 11.9706 10.5 12.3522 10.5 12.75Z" stroke="white" stroke-width="1.5" stroke-linecap="round" stroke-linejoin="round"/>
<path d="M9.03611 7.497L8.28711 0.75H15.7871L15.0321 7.545" stroke="white" stroke-width="1.5" stroke-linecap="round" stroke-linejoin="round"/>
</svg>
