<svg width="89" height="88" viewBox="0 0 89 88" fill="none" xmlns="http://www.w3.org/2000/svg">
<g id="3">
<path id="Vector" fill-rule="evenodd" clip-rule="evenodd" d="M43.2211 1.58343C44.6035 0.807478 46.3056 0.807478 47.6862 1.58343C54.517 5.41846 75.0728 16.9624 81.9059 20.7974C83.2883 21.5713 84.1394 23.005 84.1394 24.5571C84.1394 32.2272 84.1394 55.313 84.1394 62.9831C84.1394 64.535 83.2883 65.9686 81.9059 66.7448C75.0749 70.5799 54.5191 82.1238 47.6862 85.9588C46.3036 86.7348 44.6015 86.7348 43.2211 85.9588C36.39 82.1238 15.8342 70.5799 9.00137 66.7448C7.621 65.9686 6.76973 64.537 6.76973 62.9851C6.76973 55.3148 6.76973 32.2292 6.76973 24.5592C6.76973 23.007 7.621 21.5734 9.00341 20.7974C15.8322 16.9624 36.3921 5.41846 43.2211 1.58343Z" fill="#283593"/>
<path id="Vector_2" fill-rule="evenodd" clip-rule="evenodd" d="M7.3889 64.9608C6.84732 64.2357 6.76973 63.5473 6.76973 62.6207C6.76973 54.9953 6.76973 32.042 6.76973 24.4146C6.76973 22.8709 7.61896 21.4451 8.99729 20.6753C15.8038 16.8627 36.2904 5.38599 43.0968 1.57137C44.4753 0.799504 46.3423 0.815612 47.7207 1.5877C54.5272 5.40028 74.9446 16.7792 81.7512 20.5918C82.3009 20.9015 82.7202 21.2741 83.0948 21.765L7.3889 64.9608Z" fill="#5C6BC0"/>
<path id="Vector_3" fill-rule="evenodd" clip-rule="evenodd" d="M45.4545 15.2578C61.1869 15.2578 73.9592 28.0339 73.9592 43.7714C73.9592 59.5086 61.1869 72.2847 45.4545 72.2847C29.722 72.2847 16.95 59.5086 16.95 43.7714C16.95 28.0339 29.722 15.2578 45.4545 15.2578ZM45.4545 29.5146C53.3197 29.5146 59.7067 35.9016 59.7067 43.7714C59.7067 51.6391 53.3197 58.0279 45.4545 58.0279C37.5893 58.0279 31.2022 51.6391 31.2022 43.7714C31.2022 35.9016 37.5872 29.5146 45.4545 29.5146Z" fill="white"/>
<path id="Vector_4" fill-rule="evenodd" clip-rule="evenodd" d="M83.0907 21.7844C84.1414 22.7682 84.121 24.2509 84.121 25.418C84.121 33.1471 84.0559 55.1311 84.1394 62.8602C84.1475 63.6667 83.8807 64.516 83.4816 65.1556L44.626 43.7705L83.0907 21.7844Z" fill="#3949AB"/>
<path id="Vector_5" fill-rule="evenodd" clip-rule="evenodd" d="M59.7068 37.6609H63.7789V49.8809H59.7068V37.6609ZM73.9593 37.6609H78.0312V49.8809H73.9593V37.6609Z" fill="white"/>
<path id="Vector_6" fill-rule="evenodd" clip-rule="evenodd" d="M55.6348 41.7341H67.851V45.8074H55.6348V41.7341ZM69.8871 41.7341H82.1033V45.8074H69.8871V41.7341Z" fill="white"/>
</g>
</svg>
