<svg width="89" height="88" viewBox="0 0 89 88" fill="none" xmlns="http://www.w3.org/2000/svg">
<path fill-rule="evenodd" clip-rule="evenodd" d="M38.9241 2.36362C40.2849 1.60015 41.9603 1.60015 43.3191 2.36362C50.0428 6.13649 70.2764 17.493 77.002 21.2659C78.3628 22.0273 79.2005 23.4378 79.2005 24.9648C79.2005 32.5103 79.2005 55.2217 79.2005 62.7675C79.2005 64.2942 78.3628 65.7047 77.002 66.4682C70.2782 70.2411 50.0448 81.5976 43.3191 85.3704C41.9584 86.1339 40.2829 86.1339 38.9241 85.3704C32.2003 81.5976 11.9669 70.2411 5.24117 66.4682C3.88235 65.7047 3.04469 64.2962 3.04469 62.7695C3.04469 55.2238 3.04469 32.5123 3.04469 24.9666C3.04469 23.4399 3.88235 22.0293 5.24321 21.2659C11.9649 17.493 32.2024 6.13649 38.9241 2.36362Z" fill="#283593"/>
<path fill-rule="evenodd" clip-rule="evenodd" d="M3.65388 64.7125C3.12093 63.9992 3.04469 63.3219 3.04469 62.4103C3.04469 54.9086 3.04469 32.3276 3.04469 24.8238C3.04469 23.3051 3.88031 21.9027 5.23708 21.1454C11.9368 17.3945 32.1021 6.104 38.8018 2.3511C40.1586 1.59171 41.9963 1.60782 43.3531 2.36721C50.053 6.11785 70.15 17.3124 76.8497 21.063C77.3908 21.3677 77.8038 21.7343 78.1725 22.2172L3.65388 64.7125Z" fill="#5C6BC0"/>
<path fill-rule="evenodd" clip-rule="evenodd" d="M41.1226 15.8162C56.6084 15.8162 69.1801 28.3849 69.1801 43.8671C69.1801 59.3493 56.6084 71.918 41.1226 71.918C25.637 71.918 13.0653 59.3493 13.0653 43.8671C13.0653 28.3849 25.637 15.8162 41.1226 15.8162ZM41.1226 29.8415C48.8644 29.8415 55.1513 36.1251 55.1513 43.8671C55.1513 51.6073 48.8644 57.8927 41.1226 57.8927C33.3808 57.8927 27.0938 51.6073 27.0938 43.8671C27.0938 36.1251 33.3788 29.8415 41.1226 29.8415Z" fill="white"/>
<path fill-rule="evenodd" clip-rule="evenodd" d="M78.1684 22.2366C79.2026 23.2045 79.1826 24.6631 79.1826 25.8111C79.1826 33.415 79.1184 55.0423 79.2005 62.6462C79.2087 63.4396 78.9462 64.2752 78.5532 64.9044L40.307 43.866L78.1684 22.2366Z" fill="#3949AB"/>
<path fill-rule="evenodd" clip-rule="evenodd" d="M61.1636 35.8516H63.1677V51.8805H61.1636V35.8516ZM67.1761 35.8516H69.1801V51.8805H67.1761V35.8516Z" fill="white"/>
<path fill-rule="evenodd" clip-rule="evenodd" d="M57.1555 45.8702H73.1883V47.8739H57.1555V45.8702ZM57.1555 39.8594H73.1883V41.863H57.1555V39.8594Z" fill="white"/>
</svg>
