<svg width="88" height="88" viewBox="0 0 88 88" fill="none" xmlns="http://www.w3.org/2000/svg">
<path fill-rule="evenodd" clip-rule="evenodd" d="M41.4048 3.10461C42.7532 2.34794 44.4136 2.34794 45.7599 3.10461C52.4224 6.84435 72.4715 18.1017 79.1358 21.8415C80.4842 22.5961 81.3144 23.9944 81.3144 25.5077C81.3144 32.9874 81.3144 55.4999 81.3144 62.9794C81.3144 64.4929 80.4842 65.891 79.1358 66.6476C72.4733 70.3876 52.4244 81.6447 45.7599 85.3845C44.4115 86.1411 42.7514 86.1411 41.4048 85.3845C34.7423 81.6447 14.6934 70.3876 8.0289 66.6476C6.68256 65.891 5.85239 64.4947 5.85239 62.9814C5.85239 55.5017 5.85239 32.9895 5.85239 25.5097C5.85239 23.9964 6.68256 22.5981 8.03094 21.8415C14.6914 18.1017 34.7444 6.84435 41.4048 3.10461Z" fill="#283593"/>
<path fill-rule="evenodd" clip-rule="evenodd" d="M6.45613 64.9077C5.92794 64.2007 5.85239 63.5294 5.85239 62.6257C5.85239 55.1897 5.85239 32.8064 5.85239 25.3686C5.85239 23.863 6.68052 22.4729 8.02504 21.7221C14.6637 18.0042 34.6452 6.8124 41.2839 3.09261C42.6282 2.33981 44.4492 2.35569 45.7937 3.1085C52.4324 6.82646 72.3463 17.9227 78.9849 21.6407C79.5211 21.9425 79.9301 22.3059 80.2957 22.7847L6.45613 64.9077Z" fill="#5C6BC0"/>
<path fill-rule="evenodd" clip-rule="evenodd" d="M43.5833 16.439C58.928 16.439 71.3851 28.8977 71.3851 44.2442C71.3851 59.5907 58.928 72.0496 43.5833 72.0496C28.2388 72.0496 15.7815 59.5907 15.7815 44.2442C15.7815 28.8977 28.2388 16.439 43.5833 16.439ZM43.5833 30.3416C51.2545 30.3416 57.4841 36.57 57.4841 44.2442C57.4841 51.9165 51.2545 58.1468 43.5833 58.1468C35.9121 58.1468 29.6825 51.9165 29.6825 44.2442C29.6825 36.57 35.9101 30.3416 43.5833 30.3416Z" fill="white"/>
<path fill-rule="evenodd" clip-rule="evenodd" d="M80.2914 22.8037C81.3163 23.763 81.2963 25.2087 81.2963 26.3467C81.2963 33.8841 81.2328 55.322 81.3142 62.8591C81.3222 63.6457 81.0619 64.4739 80.6728 65.0976L42.7751 44.2434L80.2914 22.8037Z" fill="#3949AB"/>
</svg>
