<svg width="89" height="88" viewBox="0 0 89 88" fill="none" xmlns="http://www.w3.org/2000/svg">
<g id="28">
<g id="Clip path group">
<mask id="mask0_92_474" style="mask-type:luminance" maskUnits="userSpaceOnUse" x="4" y="3" width="58" height="62">
<g id="718a10f452">
<path id="Vector" d="M4.47476 3.76904H61.3957V64.852H4.47476V3.76904Z" fill="white"/>
</g>
</mask>
<g mask="url(#mask0_92_474)">
<g id="Group">
<path id="Vector_2" d="M45.5421 3.7692C42.2683 3.77964 39.9988 4.06801 37.2555 4.54152C29.1546 5.95161 27.6787 8.91314 27.6787 14.3706V22.7116H46.6261V26.9212H17.8008C12.2512 26.9212 7.39428 29.5352 5.85532 35.8011C4.11648 42.9929 4.03843 47.497 5.85532 55.0067C7.23433 60.6073 10.2723 64.8063 15.8237 64.8063H23.4702V54.0637C23.4702 47.8212 29.1251 41.6542 35.6052 41.6542H50.8389C56.1505 41.6542 61.3653 37.7353 61.3653 32.4418V14.3706C61.3653 9.23713 57.662 5.39823 52.4852 4.53743C52.6136 4.52473 48.7883 3.75649 45.5421 3.7692ZM35.0493 12.188C36.7777 12.188 38.2073 13.6128 38.2073 15.3494C38.2073 17.1026 36.7777 18.5022 35.0493 18.5022C33.2871 18.5022 31.8913 17.1046 31.8913 15.3494C31.8913 13.6192 33.2871 12.188 35.0493 12.188Z" fill="#0277BD"/>
</g>
</g>
</g>
<g id="Clip path group_2">
<mask id="mask1_92_474" style="mask-type:luminance" maskUnits="userSpaceOnUse" x="27" y="22" width="58" height="62">
<g id="29051d9c9c">
<path id="Vector_3" d="M27.6497 22.6831H84.5707V83.7479H27.6497V22.6831Z" fill="white"/>
</g>
</mask>
<g mask="url(#mask1_92_474)">
<g id="Group_2">
<path id="Vector_4" d="M43.5016 83.7487C46.7754 83.7381 49.0449 83.4497 51.7882 82.9762C59.8893 81.5661 61.365 78.6048 61.365 73.1471V64.8061H42.4176V60.5967H71.2451C76.7948 60.5967 81.6515 57.9825 83.1904 51.7169C84.9295 44.5248 85.0073 40.0207 83.1904 32.511C81.8094 26.9104 78.7716 22.7114 73.22 22.7114H65.5735V33.454C65.5735 39.6967 59.9188 45.8635 53.4387 45.8635H38.2048C32.8932 45.8635 27.6784 49.7824 27.6784 55.0759V73.1471C27.6784 78.2806 31.3817 82.1195 36.5585 82.9805C36.4301 82.993 40.2554 83.7612 43.5016 83.7487ZM53.9967 75.3297C52.268 75.3297 50.8386 73.9049 50.8386 72.1685C50.8386 70.4151 52.268 69.0155 53.9967 69.0155C55.7586 69.0155 57.1544 70.4131 57.1544 72.1685C57.1544 73.8985 55.7566 75.3297 53.9967 75.3297Z" fill="#FFC107"/>
</g>
</g>
</g>
</g>
</svg>
