<svg width="16" height="16" viewBox="0 0 16 16" fill="none" xmlns="http://www.w3.org/2000/svg">
<path d="M5.66489 12.6623H5.33167C2.6659 12.6623 1.33301 11.9959 1.33301 8.66368V5.33146C1.33301 2.66568 2.6659 1.33279 5.33167 1.33279H10.6632C13.329 1.33279 14.6619 2.66568 14.6619 5.33146V8.66368C14.6619 11.3295 13.329 12.6623 10.6632 12.6623H10.33C10.1234 12.6623 9.92347 12.7623 9.79685 12.9289L8.79718 14.2618C8.35733 14.8483 7.63757 14.8483 7.19772 14.2618L6.19805 12.9289C6.09142 12.7823 5.84483 12.6623 5.66489 12.6623Z" stroke="white" stroke-width="1.4995" stroke-miterlimit="10" stroke-linecap="round" stroke-linejoin="round"/>
<path d="M4.66524 5.33148H11.3297" stroke="white" stroke-width="1.4995" stroke-linecap="round" stroke-linejoin="round"/>
<path d="M4.66524 8.66367H8.6639" stroke="white" stroke-width="1.4995" stroke-linecap="round" stroke-linejoin="round"/>
</svg>
