<svg width="16" height="16" viewBox="0 0 16 16" fill="none" xmlns="http://www.w3.org/2000/svg">
<g clip-path="url(#clip0_85_201)">
<path d="M2.50006 15.5L1.16673 13.82C0.738007 13.2895 0.502861 12.6287 0.500061 11.9466V8.49997C0.500061 8.23475 0.605418 7.9804 0.792954 7.79286C0.980491 7.60533 1.23484 7.49997 1.50006 7.49997C1.76528 7.49997 2.01963 7.60533 2.20717 7.79286C2.3947 7.9804 2.50006 8.23475 2.50006 8.49997V11.08" stroke="white" stroke-width="1.5" stroke-linecap="round" stroke-linejoin="round"/>
<path d="M5.50006 15.4999V13.4066C5.50124 12.815 5.32473 12.2367 4.99339 11.7466L4.23339 10.5999C4.16753 10.4905 4.08005 10.3955 3.97628 10.321C3.8725 10.2465 3.75462 10.1938 3.62984 10.1664C3.50505 10.1389 3.37598 10.1372 3.2505 10.1613C3.12503 10.1854 3.00578 10.2349 2.90006 10.3066C2.71157 10.4333 2.57577 10.6244 2.51809 10.8441C2.46041 11.0638 2.48481 11.297 2.58672 11.4999L3.50006 12.9999" stroke="white" stroke-width="1.5" stroke-linecap="round" stroke-linejoin="round"/>
<path d="M13.5001 15.4999L14.8334 13.8199C15.2621 13.2894 15.4973 12.6287 15.5001 11.9466V8.49994C15.5001 8.23472 15.3947 7.98037 15.2072 7.79283C15.0196 7.6053 14.7653 7.49994 14.5001 7.49994C14.2348 7.49994 13.9805 7.6053 13.793 7.79283C13.6054 7.98037 13.5001 8.23472 13.5001 8.49994V11.0799" stroke="white" stroke-width="1.5" stroke-linecap="round" stroke-linejoin="round"/>
<path d="M10.5001 15.4999V13.4066C10.4989 12.815 10.6754 12.2367 11.0067 11.7466L11.7667 10.5999C11.8326 10.4905 11.9201 10.3955 12.0238 10.321C12.1276 10.2465 12.2455 10.1938 12.3703 10.1664C12.4951 10.1389 12.6241 10.1372 12.7496 10.1613C12.8751 10.1854 12.9943 10.2349 13.1001 10.3066C13.2885 10.4333 13.4244 10.6244 13.482 10.8441C13.5397 11.0638 13.5153 11.297 13.4134 11.4999L12.5001 12.9999" stroke="white" stroke-width="1.5" stroke-linecap="round" stroke-linejoin="round"/>
<path d="M4.94597 1.71991L2.50012 3.55263L4.94597 5.38535" stroke="white" stroke-width="1.5" stroke-linecap="round" stroke-linejoin="round"/>
<path d="M11.0533 1.71991L13.4992 3.55263L11.0533 5.38535" stroke="white" stroke-width="1.5" stroke-linecap="round" stroke-linejoin="round"/>
<path d="M8.61345 0.499969L7.38678 6.6133" stroke="white" stroke-width="1.5" stroke-linecap="round" stroke-linejoin="round"/>
</g>
<defs>
<clipPath id="clip0_85_201">
<rect width="16" height="16" fill="white"/>
</clipPath>
</defs>
</svg>
