<svg width="14" height="14" viewBox="0 0 14 14" fill="none" xmlns="http://www.w3.org/2000/svg">
<path d="M6.95556 8.76877C9.02496 8.76877 10.7025 7.15332 10.7025 5.16057C10.7025 3.16781 9.02496 1.55237 6.95556 1.55237C4.88617 1.55237 3.20859 3.16781 3.20859 5.16057C3.20859 7.15332 4.88617 8.76877 6.95556 8.76877Z" fill="white"/>
<path d="M9.05942 9.10735C9.24261 9.01298 9.45355 9.15176 9.45355 9.35715V12.0494C9.45355 12.549 9.10383 12.7933 8.67085 12.5879L7.18316 11.8829C7.05548 11.8274 6.85564 11.8274 6.72797 11.8829L5.24028 12.5879C4.8073 12.7877 4.45758 12.5435 4.45758 12.0439L4.46868 9.35715C4.46868 9.15176 4.68517 9.01853 4.86281 9.10735C5.49008 9.42376 6.20062 9.6014 6.95556 9.6014C7.71051 9.6014 8.4266 9.42376 9.05942 9.10735Z" fill="white"/>
</svg>
