<svg width="16" height="16" viewBox="0 0 16 16" fill="none" xmlns="http://www.w3.org/2000/svg">
<g clip-path="url(#clip0_86_633)">
<path d="M9.88189 11.3643V14.3289C9.88189 14.591 9.77778 14.8423 9.59246 15.0276C9.40714 15.213 9.15579 15.3171 8.8937 15.3171H6.91733C6.65524 15.3171 6.40389 15.213 6.21857 15.0276C6.03325 14.8423 5.92914 14.591 5.92914 14.3289V11.3643" stroke="#3F43E8" stroke-width="0.988189" stroke-linecap="round" stroke-linejoin="round"/>
<path d="M5.92914 13.3407H9.88189" stroke="#3F43E8" stroke-width="0.988189" stroke-linecap="round" stroke-linejoin="round"/>
<path d="M7.90552 0.494202V1.48239" stroke="#3F43E8" stroke-width="0.988189" stroke-linecap="round" stroke-linejoin="round"/>
<path d="M0.98819 7.41156H1.97638" stroke="#3F43E8" stroke-width="0.988189" stroke-linecap="round" stroke-linejoin="round"/>
<path d="M2.47046 2.47058L3.19513 3.1689" stroke="#3F43E8" stroke-width="0.988189" stroke-linecap="round" stroke-linejoin="round"/>
<path d="M14.8228 7.41156H13.8347" stroke="#3F43E8" stroke-width="0.988189" stroke-linecap="round" stroke-linejoin="round"/>
<path d="M13.3405 2.47058L12.6159 3.1689" stroke="#3F43E8" stroke-width="0.988189" stroke-linecap="round" stroke-linejoin="round"/>
<path d="M5.92914 7.08215C6.19122 7.08215 6.44257 7.18627 6.62789 7.37159C6.81321 7.55691 6.91733 7.80826 6.91733 8.07034V11.3643" stroke="#3F43E8" stroke-width="0.988189" stroke-linecap="round" stroke-linejoin="round"/>
<path d="M8.89371 11.3643V8.07034C8.89371 7.80826 8.99782 7.55691 9.18314 7.37159C9.36846 7.18627 9.61981 7.08215 9.8819 7.08215" stroke="#3F43E8" stroke-width="0.988189" stroke-linecap="round" stroke-linejoin="round"/>
<path d="M5.87645 11.3643H9.93461C10.6693 11.0004 11.2861 10.4362 11.7139 9.73684C12.1417 9.03745 12.363 8.23136 12.3524 7.41157C12.3321 6.23854 11.857 5.11923 11.0275 4.28965C10.1979 3.46007 9.07856 2.98504 7.90553 2.96472C6.7325 2.98504 5.61319 3.46007 4.78361 4.28965C3.95403 5.11923 3.479 6.23854 3.45868 7.41157C3.44803 8.23136 3.66937 9.03745 4.09717 9.73684C4.52496 10.4362 5.14178 11.0004 5.87645 11.3643Z" stroke="#3F43E8" stroke-width="0.988189" stroke-linecap="round" stroke-linejoin="round"/>
</g>
<defs>
<clipPath id="clip0_86_633">
<rect width="15.811" height="15.811" fill="white"/>
</clipPath>
</defs>
</svg>
