<svg width="14" height="14" viewBox="0 0 14 14" fill="none" xmlns="http://www.w3.org/2000/svg">
<path d="M11.1491 4.14519L9.44492 2.44101C8.92312 1.91921 8.21813 1.625 7.47984 1.625H4.74316C3.07784 1.625 1.96762 2.73521 1.96762 4.40054V9.95161C1.96762 11.6169 3.07784 12.7271 4.74316 12.7271H9.18402C10.8493 12.7271 11.9596 11.6169 11.9596 9.95161V6.10472C11.9596 5.36642 11.6653 4.66144 11.1491 4.14519ZM5.87003 10.2125C6.03101 10.3735 6.03101 10.6399 5.87003 10.8009C5.78676 10.8842 5.68129 10.923 5.57582 10.923C5.47035 10.923 5.36488 10.8842 5.28161 10.8009L4.1714 9.69071C4.01042 9.52973 4.01042 9.26328 4.1714 9.1023L5.28161 7.99208C5.44259 7.8311 5.70905 7.8311 5.87003 7.99208C6.03101 8.15306 6.03101 8.41952 5.87003 8.5805L5.05402 9.3965L5.87003 10.2125ZM9.75578 9.69071L8.64556 10.8009C8.5623 10.8842 8.45683 10.923 8.35136 10.923C8.24589 10.923 8.14042 10.8842 8.05715 10.8009C7.89617 10.6399 7.89617 10.3735 8.05715 10.2125L8.87316 9.3965L8.05715 8.5805C7.89617 8.41952 7.89617 8.15306 8.05715 7.99208C8.21813 7.8311 8.48458 7.8311 8.64556 7.99208L9.75578 9.1023C9.91676 9.26328 9.91676 9.52973 9.75578 9.69071Z" fill="white"/>
</svg>
